<mxfile host="app.diagrams.net" agent="Mozilla/5.0 (Windows NT 10.0; Win64; x64) AppleWebKit/537.36 (KHTML, like Gecko) Chrome/135.0.0.0 Safari/537.36 Edg/135.0.0.0" version="26.2.14">
  <diagram name="第 1 页" id="H22XvbOpW0bDJVRPv6cQ">
    <mxGraphModel dx="543" dy="379" grid="0" gridSize="10" guides="1" tooltips="1" connect="1" arrows="1" fold="1" page="1" pageScale="1" pageWidth="827" pageHeight="1169" math="0" shadow="0">
      <root>
        <mxCell id="0" />
        <mxCell id="1" parent="0" />
        <mxCell id="zMCWOjIDw1PjHqTFrJZc-20" value="&lt;div&gt;&lt;br&gt;&lt;/div&gt;&lt;div&gt;&lt;br&gt;&lt;/div&gt;&lt;div&gt;&lt;br&gt;&lt;/div&gt;&lt;div&gt;&lt;br&gt;&lt;/div&gt;&lt;div&gt;&lt;br&gt;&lt;/div&gt;&lt;div&gt;libstcbrctrl.a库范畴&lt;/div&gt;" style="rounded=1;whiteSpace=wrap;html=1;dashed=1;" vertex="1" parent="1">
          <mxGeometry x="120" y="125" width="270" height="95" as="geometry" />
        </mxCell>
        <mxCell id="zMCWOjIDw1PjHqTFrJZc-17" style="edgeStyle=orthogonalEdgeStyle;rounded=0;orthogonalLoop=1;jettySize=auto;html=1;exitX=1;exitY=0.5;exitDx=0;exitDy=0;entryX=0;entryY=0.5;entryDx=0;entryDy=0;" edge="1" parent="1" source="zMCWOjIDw1PjHqTFrJZc-1" target="zMCWOjIDw1PjHqTFrJZc-16">
          <mxGeometry relative="1" as="geometry" />
        </mxCell>
        <mxCell id="zMCWOjIDw1PjHqTFrJZc-1" value="数据&lt;div&gt;采集&lt;/div&gt;" style="rounded=1;whiteSpace=wrap;html=1;absoluteArcSize=1;arcSize=14;strokeWidth=2;" vertex="1" parent="1">
          <mxGeometry x="50" y="138.75" width="50" height="52.5" as="geometry" />
        </mxCell>
        <mxCell id="zMCWOjIDw1PjHqTFrJZc-7" value="" style="edgeStyle=orthogonalEdgeStyle;rounded=0;orthogonalLoop=1;jettySize=auto;html=1;" edge="1" parent="1" source="zMCWOjIDw1PjHqTFrJZc-2" target="zMCWOjIDw1PjHqTFrJZc-3">
          <mxGeometry relative="1" as="geometry" />
        </mxCell>
        <mxCell id="zMCWOjIDw1PjHqTFrJZc-2" value="算法&lt;div&gt;分析&lt;/div&gt;" style="rounded=1;whiteSpace=wrap;html=1;absoluteArcSize=1;arcSize=14;strokeWidth=2;" vertex="1" parent="1">
          <mxGeometry x="220" y="140" width="60" height="50" as="geometry" />
        </mxCell>
        <mxCell id="zMCWOjIDw1PjHqTFrJZc-11" style="edgeStyle=orthogonalEdgeStyle;rounded=0;orthogonalLoop=1;jettySize=auto;html=1;exitX=1;exitY=0.5;exitDx=0;exitDy=0;entryX=0;entryY=0.5;entryDx=0;entryDy=0;" edge="1" parent="1" source="zMCWOjIDw1PjHqTFrJZc-3" target="zMCWOjIDw1PjHqTFrJZc-4">
          <mxGeometry relative="1" as="geometry" />
        </mxCell>
        <mxCell id="zMCWOjIDw1PjHqTFrJZc-3" value="防抖或&lt;div&gt;仲裁&lt;/div&gt;" style="rounded=1;whiteSpace=wrap;html=1;absoluteArcSize=1;arcSize=14;strokeWidth=2;" vertex="1" parent="1">
          <mxGeometry x="320" y="140" width="62.5" height="50" as="geometry" />
        </mxCell>
        <mxCell id="zMCWOjIDw1PjHqTFrJZc-4" value="输入&lt;div&gt;增减&lt;/div&gt;" style="rounded=1;whiteSpace=wrap;html=1;absoluteArcSize=1;arcSize=14;strokeWidth=2;" vertex="1" parent="1">
          <mxGeometry x="420" y="138.75" width="50" height="51.25" as="geometry" />
        </mxCell>
        <mxCell id="zMCWOjIDw1PjHqTFrJZc-18" style="edgeStyle=orthogonalEdgeStyle;rounded=0;orthogonalLoop=1;jettySize=auto;html=1;exitX=1;exitY=0.5;exitDx=0;exitDy=0;entryX=0;entryY=0.5;entryDx=0;entryDy=0;" edge="1" parent="1" source="zMCWOjIDw1PjHqTFrJZc-16" target="zMCWOjIDw1PjHqTFrJZc-2">
          <mxGeometry relative="1" as="geometry" />
        </mxCell>
        <mxCell id="zMCWOjIDw1PjHqTFrJZc-16" value="归一化&lt;br&gt;处理" style="rounded=1;whiteSpace=wrap;html=1;absoluteArcSize=1;arcSize=14;strokeWidth=2;" vertex="1" parent="1">
          <mxGeometry x="140" y="143.75" width="50" height="42.5" as="geometry" />
        </mxCell>
      </root>
    </mxGraphModel>
  </diagram>
</mxfile>
